HIERARCHY
ROOT Hips
{
	OFFSET 0.000000 0.000000 0.000000
	CHANNELS 6 Xposition Yposition Zposition Zrotation Yrotation Xrotation 
	JOINT LHipJoint
	{
		OFFSET 0.000000 0.000000 0.000000
		CHANNELS 3 Zrotation Yrotation Xrotation
		JOINT LeftUpLeg
		{
			OFFSET 1.363060 -1.794630 0.839290
			CHANNELS 3 Zrotation Yrotation Xrotation
			JOINT LeftLeg
			{
				OFFSET 2.448110 -6.726130 0.000000
				CHANNELS 3 Zrotation Yrotation Xrotation
				JOINT LeftFoot
				{
					OFFSET 2.562200 -7.039590 0.000000
					CHANNELS 3 Zrotation Yrotation Xrotation
					JOINT LeftToeBase
					{
						OFFSET 0.157640 -0.433110 2.322550
						CHANNELS 3 Zrotation Yrotation Xrotation
						End Site
						{
							OFFSET 0.000000 0.000000 0.000000
						}
					}
				}
			}
		}
	}
	JOINT RHipJoint
	{
		OFFSET 0.000000 0.000000 0.000000
		CHANNELS 3 Zrotation Yrotation Xrotation
		JOINT RightUpLeg
		{
			OFFSET -1.305520 -1.794630 0.839290
			CHANNELS 3 Zrotation Yrotation Xrotation
			JOINT RightLeg
			{
				OFFSET -2.542530 -6.985550 0.000000
				CHANNELS 3 Zrotation Yrotation Xrotation
				JOINT RightFoot
				{
					OFFSET -2.568260 -7.056230 0.000000
					CHANNELS 3 Zrotation Yrotation Xrotation
					JOINT RightToeBase
					{
						OFFSET -0.164730 -0.452590 2.363150
						CHANNELS 3 Zrotation Yrotation Xrotation
						End Site
						{
							OFFSET 0.000000 0.000000 0.000000
						}
					}
				}
			}
		}
	}
	JOINT LowerBack
	{
		OFFSET 0.000000 0.000000 0.000000
		CHANNELS 3 Zrotation Yrotation Xrotation
		JOINT Spine
		{
			OFFSET 0.028270 2.035590 -0.193380
			CHANNELS 3 Zrotation Yrotation Xrotation
			JOINT Spine1
			{
				OFFSET 0.056720 2.048850 -0.042750
				CHANNELS 3 Zrotation Yrotation Xrotation
				JOINT Neck
				{
					OFFSET 0.000000 0.000000 0.000000
					CHANNELS 3 Zrotation Yrotation Xrotation
					JOINT Neck1
					{
						OFFSET -0.054170 1.746240 0.172020
						CHANNELS 3 Zrotation Yrotation Xrotation
						JOINT Head
						{
							OFFSET 0.104070 1.761360 -0.123970
							CHANNELS 3 Zrotation Yrotation Xrotation
							End Site
							{
								OFFSET 0.000000 0.000000 0.000000
							}
						}
					}
				}
				JOINT LeftShoulder
				{
					OFFSET 0.000000 0.000000 0.000000
					CHANNELS 3 Zrotation Yrotation Xrotation
					JOINT LeftArm
					{
						OFFSET 3.362410 1.200890 -0.311210
						CHANNELS 3 Zrotation Yrotation Xrotation
						JOINT LeftForeArm
						{
							OFFSET 4.983000 -0.000000 -0.000000
							CHANNELS 3 Zrotation Yrotation Xrotation
							JOINT LeftHand
							{
								OFFSET 3.483560 -0.000000 -0.000000
								CHANNELS 3 Zrotation Yrotation Xrotation
								JOINT LeftFingerBase
								{
									OFFSET 0.000000 0.000000 0.000000
									CHANNELS 3 Zrotation Yrotation Xrotation
									JOINT LeftHandIndex1
									{
										OFFSET 0.715260 -0.000000 -0.000000
										CHANNELS 3 Zrotation Yrotation Xrotation
										End Site
										{
											OFFSET 0.000000 0.000000 0.000000
										}
									}
								}
								JOINT LThumb
								{
									OFFSET 0.000000 0.000000 0.000000
									CHANNELS 3 Zrotation Yrotation Xrotation
									End Site
									{
										OFFSET 0.000000 0.000000 0.000000
									}
								}
							}
						}
					}
				}
				JOINT RightShoulder
				{
					OFFSET 0.000000 0.000000 0.000000
					CHANNELS 3 Zrotation Yrotation Xrotation
					JOINT RightArm
					{
						OFFSET -3.136600 1.374050 -0.404650
						CHANNELS 3 Zrotation Yrotation Xrotation
						JOINT RightForeArm
						{
							OFFSET -5.241900 -0.000000 -0.000000
							CHANNELS 3 Zrotation Yrotation Xrotation
							JOINT RightHand
							{
								OFFSET -3.444170 -0.000000 -0.000000
								CHANNELS 3 Zrotation Yrotation Xrotation
								JOINT RightFingerBase
								{
									OFFSET 0.000000 0.000000 0.000000
									CHANNELS 3 Zrotation Yrotation Xrotation
									JOINT RightHandIndex1
									{
										OFFSET -0.622530 -0.000000 -0.000000
										CHANNELS 3 Zrotation Yrotation Xrotation
										End Site
										{
											OFFSET 0.000000 0.000000 0.000000
										}
									}
								}
								JOINT RThumb
								{
									OFFSET 0.000000 0.000000 0.000000
									CHANNELS 3 Zrotation Yrotation Xrotation
									End Site
									{
										OFFSET 0.000000 0.000000 0.000000
									}
								}
							}
						}
					}
				}
			}
		}
	}
}
MOTION
Frames: 5
Frame Time: 0.008333
-0.162658 17.976985 2.720234 0.148290 -4.434191 2.681346 -1.356779 2.395900 2.912971 -19.252905 0.575946 -1.334640 -1.091764 1.706845 7.076614 -0.196645 1.053884 -1.835329 0.152700 -2.518000 -6.939700 -0.686379 -1.876986 0.781629 23.720230 4.901033 -4.619866 -1.386253 -7.034368 21.520785 0.482364 -4.879022 -7.573934 -0.000100 -0.062000 0.170400 -0.912115 -1.002890 2.060655 1.335957 -1.347472 0.321765 -0.015073 -0.774800 -4.811491 -16.757761 -13.563014 -12.135306 12.169882 -17.021804 17.356952 5.018700 -7.819500 13.578900 -6.352452 -0.000434 -1.594796 -86.385928 5.290084 18.943108 16.318996 -22.753266 -3.707966 -0.853480 -1.855462 7.588208 16.961432 21.144057 7.085900 -7.125000 0.000000 0.000000 -12.063600 53.688700 -2.606700 5.026988 1.641208 -0.758606 86.329069 -2.454266 21.285298 -16.383644 23.733744 -3.480281 0.245330 -0.142049 8.415699 -14.098685 8.599841 -2.217400 7.125000 0.000000 0.000000 9.020400 -21.052300 5.242200 
-0.163846 17.974609 2.719343 0.125385 -4.397750 2.664539 -1.361332 2.387136 2.905825 -19.225838 0.488421 -1.491389 -1.073304 1.839186 7.427675 -0.191847 1.035714 -1.969014 0.156300 -2.547700 -7.021900 -0.683632 -1.873799 0.781844 23.756680 4.882231 -4.586469 -1.372508 -7.002550 21.429146 0.488490 -4.931736 -7.650764 -0.001500 0.251800 -0.691700 -0.887235 -1.005441 2.054933 1.348649 -1.349029 0.342565 -0.012344 -0.776526 -4.777134 -16.780090 -13.566876 -12.139136 12.208718 -17.023523 17.342698 5.036400 -7.818000 13.580100 -6.356498 -0.001133 -1.592477 -86.400740 5.201047 18.789862 16.289443 -22.709623 -3.689739 -0.873703 -1.853338 7.900348 17.113298 21.258390 7.188700 -7.125000 0.000000 0.000000 -11.952400 53.836700 -2.625600 5.029581 1.645848 -0.756167 86.304568 -2.441844 21.236146 -16.332979 23.661289 -3.457437 0.246314 -0.141239 8.490743 -14.141394 8.525933 -2.205400 7.125000 0.000000 0.000000 8.991700 -21.126900 5.209800 
-0.164242 17.973421 2.719640 0.126402 -4.355573 2.657481 -1.362395 2.386035 2.905069 -19.220548 0.439334 -1.504259 -1.069437 1.870724 7.511374 -0.190445 1.037306 -2.033679 0.160600 -2.582100 -7.117200 -0.682645 -1.873140 0.781817 23.759042 4.849488 -4.577377 -1.370719 -6.998631 21.418322 0.487190 -4.931739 -7.687383 -0.000700 0.170900 -0.469500 -0.883824 -1.001683 2.062185 1.355363 -1.344048 0.332540 -0.005543 -0.774438 -4.797077 -16.860869 -13.557285 -12.065097 12.310393 -17.014996 17.337931 5.094700 -7.814800 13.581100 -6.355595 0.005500 -1.592756 -86.408732 5.231817 18.800927 16.286424 -22.704761 -3.687786 -0.864012 -1.867707 7.900569 16.940406 21.453744 7.169500 -7.125000 0.000000 0.000000 -12.229800 54.010600 -2.740200 5.029196 1.651838 -0.754816 86.271812 -2.544713 21.241564 -16.340267 23.667830 -3.460257 0.246021 -0.136930 8.456522 -14.106477 8.350364 -2.154200 7.125000 0.000000 0.000000 9.023800 -21.311200 5.190700 
-0.165529 17.973718 2.718056 0.107288 -4.288289 2.719321 -1.365728 2.379512 2.899843 -19.190801 0.334973 -1.607936 -1.065937 1.913102 7.619577 -0.189957 1.047116 -2.072076 0.171200 -2.665200 -7.347900 -0.681477 -1.872596 0.784156 23.799471 4.895006 -4.623477 -1.364918 -6.987487 21.383995 0.507937 -5.053910 -7.680789 -0.001300 0.235800 -0.647900 -0.879659 -0.995676 2.058526 1.366138 -1.338735 0.284142 0.009620 -0.770025 -4.864472 -16.869629 -13.533465 -11.955345 12.329945 -16.994237 17.299882 5.111600 -7.810700 13.541600 -6.350777 0.010727 -1.596133 -86.406377 5.353113 18.920912 16.301913 -22.728727 -3.695056 -0.824656 -1.923373 7.562478 16.402538 22.115736 7.118900 -7.125000 0.000000 0.000000 -13.133200 54.607800 -3.140600 5.028950 1.650872 -0.756863 86.245576 -2.648238 21.224080 -16.321392 23.637599 -3.451081 0.247216 -0.136763 8.378699 -14.153654 8.331073 -2.156900 7.125000 0.000000 0.000000 8.989800 -21.328600 5.167100 
-0.167410 17.974312 2.715779 0.153511 -4.224703 2.759162 -1.368363 2.372979 2.893931 -19.226908 0.250644 -1.655138 -1.066243 1.924008 7.645929 -0.190267 1.049697 -2.063365 0.168000 -2.640500 -7.279300 -0.679785 -1.872544 0.785807 23.758256 4.907052 -4.663431 -1.362080 -6.983273 21.368287 0.515702 -5.102275 -7.688438 -0.002300 0.309400 -0.850100 -0.953908 -0.985754 2.049969 1.364292 -1.331449 0.283624 0.048575 -0.762995 -4.858273 -16.781302 -13.539810 -12.066524 12.231419 -16.999310 17.348988 5.053700 -7.808800 13.565800 -6.356810 0.008293 -1.596399 -86.402418 5.374496 19.306372 16.210731 -22.598171 -3.657450 -0.840929 -1.880199 6.151659 17.182000 21.048578 7.167900 -7.125000 0.000000 0.000000 -11.769300 53.645500 -2.529200 5.032417 1.642579 -0.760055 86.242228 -2.619728 21.060125 -16.264753 23.558742 -3.425237 0.247820 -0.140049 8.503643 -14.210656 8.412570 -2.187400 7.125000 0.000000 0.000000 8.944900 -21.240500 5.158700 
